<?xml version="1.0" encoding="UTF-8" standalone="no"?>
<!-- Created with Inkscape (http://www.inkscape.org/) -->

<svg
   width="210mm"
   height="297mm"
   viewBox="0 0 210 297"
   version="1.1"
   id="svg5"
   inkscape:version="1.2.1 (9c6d41e410, 2022-07-14)"
   sodipodi:docname="drawing.svg"
   xmlns:inkscape="http://www.inkscape.org/namespaces/inkscape"
   xmlns:sodipodi="http://sodipodi.sourceforge.net/DTD/sodipodi-0.dtd"
   xmlns="http://www.w3.org/2000/svg"
   xmlns:svg="http://www.w3.org/2000/svg">
  <sodipodi:namedview
     id="namedview7"
     pagecolor="#ffffff"
     bordercolor="#666666"
     borderopacity="1.0"
     inkscape:showpageshadow="2"
     inkscape:pageopacity="0.0"
     inkscape:pagecheckerboard="0"
     inkscape:deskcolor="#d1d1d1"
     inkscape:document-units="mm"
     showgrid="false"
     inkscape:lockguides="false"
     inkscape:zoom="0.58058348"
     inkscape:cx="1047.2224"
     inkscape:cy="382.37395"
     inkscape:window-width="1920"
     inkscape:window-height="1017"
     inkscape:window-x="-8"
     inkscape:window-y="-8"
     inkscape:window-maximized="1"
     inkscape:current-layer="layer1" />
  <defs
     id="defs2" />
  <g
     inkscape:label="Layer 1"
     inkscape:groupmode="layer"
     id="layer1">
    <rect
       style="fill:#ffb380;fill-rule:evenodd;stroke-width:0.263869"
       id="rect111"
       width="210.28442"
       height="33.978813"
       x="0.22785985"
       y="0.34703505" />
    <rect
       style="fill:#e6e6e6;stroke-width:0.264583"
       id="rect533"
       width="209.45763"
       height="112.46262"
       x="0.32224247"
       y="33.513222" />
    <path
       style="fill:#000000;stroke-width:0.160815"
       id="path884"
       d="m 56.444207,11.832245 c -1.245884,0.09319 -2.408029,0.408685 -3.497797,0.890532 -1.257456,0.555991 -2.512398,1.119826 -3.709373,1.751951 -1.002303,0.52932 -1.932938,1.367642 -2.75653,2.04513 -0.350201,0.420444 -0.7593,0.814347 -1.050603,1.261332 -1.157489,1.776096 -1.243898,3.832371 -0.755608,5.755051 0.08862,0.348967 0.232253,0.68803 0.34838,1.032046 0.323976,0.550239 0.640205,1.426809 1.530577,1.614949 1.434374,0.30309 4.372103,-1.700057 4.697937,-1.869067 1.964298,-1.725729 2.946277,-3.911597 4.005459,-6.025538 0.627972,-1.335685 1.424209,-2.618967 2.079381,-3.945394 0.04586,-0.06996 0.221133,-0.2537 0.137567,-0.209879 -0.801339,0.420218 -1.691952,0.781164 -2.319263,1.353949 -0.207328,0.189305 0.02003,0.497982 0.01827,0.747034 -0.0073,1.029174 -0.08962,2.058962 -0.150091,3.086743 -0.06171,1.896727 0.250541,3.786318 0.73893,5.640342 0.03246,0.0954 0.222272,0.79488 0.413798,0.91387 0.116179,0.0722 0.312675,0.11001 0.440602,0.0512 0.975341,-0.44863 1.943623,-0.92892 2.773831,-1.529708 0.144414,-0.104507 1.082366,-1.892305 1.094936,-1.915636 1.131079,-2.25358 2.26662,-4.506182 3.482527,-6.732866 0.101236,-0.137566 0.487452,-0.4805 0.303706,-0.4127 -0.78241,0.288701 -1.535648,0.650632 -2.177225,1.104008 -0.11898,0.08408 0.07128,0.244631 0.09312,0.368747 0.03818,0.217011 0.06564,0.435218 0.08677,0.653645 0.05407,0.558836 0.06205,1.085982 0.08076,1.647114 0.01458,1.687996 0.08496,3.380268 -0.09267,5.064439 -0.511511,0.713577 -0.879602,1.201507 2.512586,-1.165446 0.250161,-0.174554 0.184609,-0.503698 0.285621,-0.753467 0.445029,-1.100403 0.945947,-2.18467 1.460645,-3.266046 0.611464,-1.041056 0.965402,-2.197781 1.75405,-3.174967 0.08571,-0.106205 0.443365,-0.351965 0.300227,-0.294765 -0.723036,0.288936 -1.380675,0.668265 -2.071012,1.002397 0.04077,2.84e-4 0.09638,-0.02368 0.122307,8.59e-4 0.231365,0.219154 0.26874,1.302951 0.281954,1.474785 0.05846,0.7601 0.06476,1.327149 0.08637,2.092474 -0.09742,1.551848 -0.0929,3.124702 -0.396789,4.664113 0.81571,-0.404854 1.761899,-0.682357 2.447128,-1.214562 0.275078,-0.213649 0.162054,-0.592619 0.257654,-0.88619 0.131576,-0.404048 0.279496,-0.804755 0.42371,-1.206165 0.418046,-1.163624 0.867937,-2.31783 1.337625,-3.469245 0.315294,-0.678385 0.573867,-1.390481 1.04652,-2.017777 0.08447,-0.11211 0.441772,-0.374085 0.292396,-0.316466 -2.371108,0.914601 -2.795336,0.7308 -1.98791,1.036186 0.03592,0.08776 0.08187,0.17339 0.107746,0.263277 0.156584,0.54391 0.172673,1.119532 0.2,1.673486 0.03077,0.623615 0.03069,0.938964 0.04094,1.565365 0.01651,1.269849 -0.0054,2.539665 -0.02097,3.809434 0.02241,0.436198 -0.07395,0.948347 0.192537,1.356647 0.138768,0.21261 0.365325,0.36728 0.573317,0.53542 0.07748,0.0604 0.57395,0.45524 0.678049,0.50688 1.088786,0.54006 2.63525,-0.83477 3.182676,-1.15146 0.237601,-0.13746 0.858999,-1.359744 0.915794,-1.463382 0.138478,-0.292084 0.293576,-0.579691 0.415435,-0.876255 0.322406,-0.784628 0.443241,-1.307929 0.665297,-2.12252 0.299776,-1.099696 0.593456,-2.200118 0.872852,-3.303067 0.393616,-1.641589 0.58195,-3.305956 0.917382,-4.954631 0.304298,-1.34994 0.47418,-2.7140688 0.577063,-4.0813818 0.01447,-0.420661 0.0652,-0.842425 0.0579,-1.263605 -0.0018,-0.100568 0.01691,-0.205539 -0.02287,-0.301206 -0.03063,-0.07368 -0.08747,-0.214533 -0.179447,-0.185445 -0.954713,0.301931 -1.829154,0.739941 -2.743732,1.109911 -0.900979,0.969611 -1.552632,2.08095 -1.938232,3.2403878 -0.0859,0.258302 -0.143892,0.521776 -0.215838,0.782664 -0.351986,1.452449 -0.38579,2.932443 -0.40551,4.405446 -0.0011,1.465693 0.005,2.931369 8.95e-4,4.397062 0.0049,1.02544 -0.0027,2.050866 -0.0039,3.0763 0.106202,1.369542 0.07394,1.064802 2.674972,-0.287164 0.103771,-0.05394 0.05087,-0.190548 0.07539,-0.285966 0.02825,-0.109925 0.0553,-0.220039 0.08295,-0.330058 0.117959,-0.743443 0.233877,-1.485959 0.461724,-2.214515 0.385657,-1.031315 1.163114,-1.727961 2.093716,-2.489683 -0.515438,0.148843 1.562298,-0.914964 1.170929,-0.687052 -0.511977,0.298147 -1.159941,0.4763 -1.567919,0.859954 -0.1562,0.146887 0.48376,-0.06273 0.728126,-0.07023 0.650174,-0.01997 0.636721,0.01942 1.213863,0.17205 0.139612,0.09959 0.300466,0.183625 0.418837,0.298762 0.381671,0.371249 0.617873,0.938736 0.68932,1.405444 0.05266,0.344 -0.01107,0.754289 -0.04564,1.095665 -0.177026,0.809737 -0.534622,1.692233 -1.366642,2.245818 -0.12504,0.0832 -0.269645,0.146591 -0.404467,0.219886 3.516426,-1.51467 1.801879,-0.78394 0.781924,-0.653783 -0.521809,0.06659 -1.050149,0.0828 -1.577305,0.09925 -0.707568,2.84e-4 -1.184992,0.109604 -1.586463,-0.408038 -0.87626,-1.00213 -3.00308,0.526216 -2.440203,1.58927 0.221526,0.277752 0.645297,0.329163 0.979476,0.493052 0.679767,0.41418 1.389393,0.79668 2.074423,1.20566 0.582389,0.35522 1.189726,0.67702 1.867731,0.90874 0.274531,0.0669 0.672001,0.18299 0.957048,0.0628 2.320827,-0.97824 2.231542,-0.73065 3.223305,-1.77808 0.661484,-0.622132 0.992868,-1.386262 1.336665,-2.137685 0.568733,-1.279987 1.172431,-2.552393 1.852201,-3.799165 0.449244,-0.705869 0.833334,-1.512346 1.666773,-2.007733 0.131054,-0.0779 0.280704,-0.134618 0.421056,-0.201925 -3.735749,1.686347 -1.713566,0.649631 -0.653098,0.624846 0.390628,-0.0091 0.44544,0.02856 0.811917,0.114504 1.180052,0.433956 1.440953,1.424188 1.700709,2.333527 0.107734,0.546674 0.250075,1.098279 0.232454,1.654719 -0.0029,0.09136 -0.149243,0.314331 -0.0456,0.271841 2.549983,-1.045323 2.62278,-0.635567 1.7807,-1.601214 -0.857039,-0.959833 -1.584038,-2.443724 -2.788368,-3.168685 -0.22506,-0.135477 -0.489696,-0.225286 -0.734545,-0.337928 -1.063795,-0.280793 -2.344351,-0.46736 -3.405863,-0.04498 -2.741588,1.09087 -2.270543,0.822128 -3.615056,1.750829 -0.351459,0.334236 -0.569137,0.489406 -0.783785,0.891195 -0.564848,1.057308 -0.282849,2.263745 -0.124921,3.356917 0.153193,0.930544 0.344365,1.865687 0.661601,2.772377 0.113224,0.32362 0.300385,0.84869 0.644541,1.09859 0.184967,0.1343 0.442806,0.18991 0.664208,0.28486 0.262432,0.0234 0.523264,0.0763 0.787293,0.0703 1.59309,-0.0364 3.797937,-1.33118 4.734068,-1.8675 0.401184,-0.22984 0.969931,-1.051528 1.202135,-1.355115 0.944429,-1.514177 1.458635,-3.16889 1.976662,-4.797052 0.199802,-0.640234 0.437103,-1.273538 0.693035,-1.901405 0.06156,-0.151032 0.117898,-0.303748 0.193374,-0.450884 0.04368,-0.08516 0.266826,-0.287033 0.163069,-0.243973 -0.803899,0.333621 -1.541098,0.757092 -2.311646,1.13564 0.21141,1.307751 0.19822,2.633646 0.266034,3.950181 0.04628,0.747692 0.03886,1.50294 0.213582,2.242263 0.159394,0.674469 0.447729,1.309735 0.782181,1.940355 0.125757,0.15641 0.226272,0.32707 0.377269,0.46923 0.540527,0.50885 1.455024,0.88213 2.31775,0.78978 0.247473,-0.0265 0.480717,-0.10614 0.721075,-0.15922 1.450762,-0.62454 3.1523,-1.12816 4.120501,-2.21868 0.58509,-0.658999 0.82023,-1.429768 1.06648,-2.192378 0.39253,-1.669006 0.59188,-3.360933 0.82692,-5.046634 0.21735,-1.465534 0.24851,-2.939924 0.26923,-4.413201 -0.0555,-1.437456 -0.0448,-2.879794 -0.25177,-4.3102158 -0.27907,-1.478955 -0.24694,-1.55576 -2.80323,0.23048 -0.169184,0.11822 -0.03385,0.353546 -0.04547,0.530562 -0.01624,0.246546 -0.02538,0.493342 -0.03811,0.7400118 -0.06487,2.048762 -0.07449,4.098305 -0.08243,6.14759 -0.02009,1.913045 -0.03942,3.824274 0.18575,5.730658 0.191976,0.938427 0.28441,1.932727 0.77482,2.817307 0.0691,0.12463 0.16339,0.23978 0.24509,0.35968 0.47708,0.6016 0.96925,0.96297 1.82238,1.19917 0.92834,0.13733 1.89015,-0.066 2.75299,-0.33273 0.88809,-0.43031 1.8096,-0.82119 2.66427,-1.29093 0.18289,-0.10052 0.42287,-0.604614 0.48451,-0.731975 0.27226,-0.562519 0.43777,-1.129712 0.59053,-1.717722 0.24119,-1.05156 0.33812,-2.116995 0.38332,-3.183087 0.003,-0.44392 0.0496,-0.957424 -0.22907,-1.367019 -0.0339,-0.04973 -0.0893,-0.145671 -0.15309,-0.119374 -0.86037,0.354762 -1.65205,0.802864 -2.47808,1.204295 -0.16036,1.212489 -0.18091,2.437142 -0.15338,3.655241 0.008,0.832934 0.0947,1.665399 0.38076,2.470791 0.0702,0.19773 0.35362,0.83676 0.44279,1.04058 0.13275,0.25927 0.20896,0.58531 0.60152,0.70723 0.92039,0.28583 2.22979,-0.29002 3.00622,-0.62017 0.96696,-0.48481 1.98798,-0.90949 2.90088,-1.45444 0.298,-0.177882 0.75461,-0.970107 0.89471,-1.215924 0.36215,-0.635481 0.63446,-1.288851 0.89262,-1.95321 0.24293,-0.504986 0.23445,-1.065267 0.42932,-1.577844 0.0214,-0.05627 0.18381,-0.177805 0.11732,-0.150398 -2.46122,1.014462 -2.4117,0.378715 -2.2984,1.376591 0.25027,1.399768 0.45175,2.803196 0.8932,4.176105 0.5127,0.97935 1.10958,1.06527 2.33396,0.80916 1.52689,-0.53742 3.38942,-1.01706 4.15687,-2.244306 0.51196,-0.814197 0.85765,-1.680538 1.23887,-2.534811 0.47409,-1.162278 0.73795,-2.370448 0.98384,-3.572878 0.14952,-0.917504 0.21069,-1.841492 0.23193,-2.765601 -0.003,-0.930894 6.9e-4,-1.861823 -0.005,-2.792707 -0.005,-0.803148 0.006,-1.606271 0.005,-2.4094148 -0.003,-0.737473 1.8e-4,-1.474936 -0.003,-2.21241 0.001,-0.105281 0.003,-0.210561 0.005,-0.315841 0.006,-0.01294 0.0325,-0.04577 0.0173,-0.03884 -0.81883,0.374045 -1.72336,0.658938 -2.43909,1.145084 -0.16044,0.108982 0.0155,0.331838 0.0204,0.49782 0.0151,0.515878 0.0246,1.2997878 0.032,1.7895948 -0.008,2.234026 -0.001,4.465474 0.16019,6.696323 0.13209,1.534385 0.20781,3.070938 0.31256,4.606497 0.10278,1.039491 0.24314,2.076302 0.32483,3.11704 0.58239,-0.29117 -0.19362,0.48433 -0.0455,0.4103 0.78791,-0.39392 1.63974,-0.73537 2.30947,-1.245404 0.14381,-0.109518 -0.0502,-0.311543 -0.0594,-0.468208 -0.0411,-0.699817 0.002,-0.856781 0.0651,-1.592133 0.11363,-1.582243 0.60533,-3.119632 1.10982,-4.647172 0.21441,-0.496465 0.31519,-1.068597 0.73107,-1.498941 0.20163,-0.208647 0.41579,-0.325034 0.67167,-0.487928 0.13581,-0.07363 0.26763,-0.151968 0.40743,-0.220894 0.15188,-0.07487 0.62095,-0.282166 0.46684,-0.21012 -0.59397,0.277696 -1.20766,0.530553 -1.78649,0.82709 -0.16173,0.08285 0.35088,-0.127541 0.53047,-0.18363 0.42208,-0.131821 0.58896,-0.160563 1.01652,-0.256371 0.55042,-0.09956 1.29968,-0.276445 1.67297,0.184296 0.0739,0.09123 0.11388,0.196751 0.17082,0.295125 0.18908,0.50708 0.36087,1.080044 0.18609,1.608001 -0.11603,0.350519 -0.36171,0.610779 -0.59878,0.915394 -1.08359,1.11847 -2.6459,1.877826 -4.12688,2.640814 -0.71337,0.412887 -3.27263,1.606436 0.47602,-0.135859 0.14377,-0.06682 -0.29202,0.127666 -0.44006,0.188549 -0.34815,0.14318 -0.35962,0.141522 -0.70068,0.256989 -1.03776,0.319342 -1.1099,0.327988 -2.64402,1.271826 -0.078,0.04798 0.0447,0.156204 0.10538,0.217507 0.34048,0.343459 0.94728,0.492976 1.43535,0.649144 1.07713,0.334053 2.20224,0.531316 3.34963,0.637096 0.84684,0.0667 1.6987,0.06524 2.54881,0.06752 0.58382,0.01736 1.16137,-0.04881 1.72634,-0.1576 1.57461,-0.287839 2.74443,-0.968015 3.49849,-1.984575 0.38972,-0.478943 0.70252,-0.988911 1.02555,-1.496254 0.55317,-0.80484 1.19799,-1.592225 2.01321,-2.251203 0.33586,-0.244037 0.38261,-0.290536 0.74731,-0.506044 0.12952,-0.07654 0.53894,-0.282447 0.39753,-0.220043 -3.09129,1.364192 -2.01096,0.834785 -0.83631,0.627826 0.78984,-0.03808 1.60964,0.130054 2.11768,0.63485 0.11689,0.116137 0.20703,0.247252 0.31054,0.370879 0.24368,0.344718 0.43714,0.710982 0.59222,1.085406 0.026,0.06283 -0.007,0.224572 0.0659,0.191303 2.43185,-1.107208 2.74167,-0.753144 1.8356,-1.394844 -0.79636,-0.639914 -1.61823,-1.299846 -2.63439,-1.729277 -0.3051,-0.128936 -0.62918,-0.228396 -0.94377,-0.342596 -1.30253,-0.422126 -2.70612,-0.685133 -4.10607,-0.396101 -1.27585,0.26341 -3.20673,1.354077 -3.89484,1.677099 -0.18317,0.17359 -0.39233,0.332294 -0.54953,0.520771 -0.79237,0.950086 -0.95066,2.151076 -1.01897,3.251468 0.0391,0.964946 0.29753,1.924876 1.1042,2.687904 0.14956,0.14146 0.33253,0.2592 0.49879,0.38879 0.62901,0.34714 1.39998,0.78875 2.22153,0.76913 1.29122,-0.0308 3.23911,-1.28714 3.71892,-1.509407 1.62876,-1.148942 2.29259,-2.679204 2.7335,-4.30677 0.22949,-1.205535 0.29254,-2.425389 0.40592,-3.640028 -0.56391,0.386587 0.26542,-0.568123 0.0748,-0.494529 -0.8303,0.320593 -1.67827,0.633111 -2.4204,1.065861 -0.11442,0.06672 0.0147,0.222699 0.0195,0.334123 0.0275,0.619954 0.0246,0.733212 0.0363,1.395904 0.0568,1.394335 -0.0819,2.796927 0.0945,4.188122 0.0316,0.248721 0.0865,0.49529 0.12978,0.742936 0.12568,0.606652 0.25216,1.229958 0.54388,1.805448 0.20748,0.40931 0.51855,0.77983 0.84585,1.13452 0.31284,0.26965 0.61446,0.43388 1.09092,0.21218 0.98063,-0.4563 1.99502,-0.88779 2.86529,-1.46458 0.32206,-0.21346 1.12888,-1.758769 1.23297,-1.944503 1.03526,-1.906934 1.69898,-3.910949 2.26018,-5.928899 0.033,-0.126799 0.18563,-0.786597 0.29049,-0.961199 0.0257,-0.0427 0.19698,-0.108734 0.14442,-0.08547 -0.78757,0.348576 -1.63911,0.625139 -2.35079,1.061998 -0.11862,0.07281 0.0359,0.233959 0.0484,0.351351 0.021,0.198894 0.0345,0.398223 0.0518,0.597335 0.14356,1.77894 -0.10601,3.554208 -0.32205,5.322615 -0.0297,0.23879 -0.0597,0.477554 -0.0889,0.716372 -0.0242,0.19715 -0.0403,0.39498 -0.0716,0.59153 -0.022,0.13843 -0.0318,0.28042 -0.0881,0.41281 -0.01,0.0233 -0.11991,0.0252 -0.0929,0.0126 2.76042,-1.293118 2.35946,-0.39435 2.66653,-1.739239 0.36146,-1.160137 0.67767,-2.328861 1.06931,-3.48329 0.0906,-0.266973 0.1701,-0.53698 0.28664,-0.79774 0.0923,-0.206531 0.22561,-0.400471 0.33841,-0.600707 0.68212,-0.799144 0.84309,-0.865135 -1.58375,0.526768 -0.074,0.04242 0.19334,-0.01795 0.27467,0.01527 0.1097,0.0448 0.19408,0.124342 0.26333,0.204447 0.22703,0.26261 0.2914,0.538778 0.40251,0.838824 0.35082,1.334137 0.33388,2.70808 0.3431,4.064347 -0.0185,0.85386 0.061,1.70649 0.13417,2.55786 0.82655,-0.3764 1.77519,-0.62365 2.47963,-1.1292 0.21983,-0.15776 0.0394,-0.46521 0.0656,-0.69741 0.0436,-0.38695 0.0916,-0.77363 0.14388,-1.15993 0.18706,-1.3829 0.40113,-2.76385 0.61914,-4.143935 0.36227,-1.52865 0.41796,-3.163863 1.22452,-4.607001 1.2221,-0.678865 -1.13915,0.468 -1.64943,0.770467 -0.091,0.05392 0.23218,-0.0164 0.34259,0.0065 0.13725,0.02844 0.26609,0.08226 0.38395,0.144091 0.27914,0.146439 0.55425,0.402089 0.777,0.589391 0.92729,0.871546 1.61392,1.873741 2.15855,2.918792 0.47662,0.951447 0.56011,1.963846 0.61372,2.972455 0.0308,0.903345 0.0101,1.80701 0.003,2.71046 -0.002,0.3359 -0.006,0.67178 -0.01,1.00766 0,0 2.41485,-0.95949 2.41485,-0.95949 v 0 c -3.6e-4,-0.33475 -6.8e-4,-0.6695 0.002,-1.00424 0.005,-0.902914 -9e-5,-1.805963 -0.0331,-2.708567 -0.0463,-1.034312 -0.15079,-2.067416 -0.6571,-3.037498 -0.56474,-1.06421 -1.26809,-2.085332 -2.1932,-2.987667 -0.36637,-0.319451 -0.72557,-0.679084 -1.24129,-0.860808 -1.2396,-0.436795 -2.61512,0.541093 -3.35937,1.322941 -0.67726,1.474789 -0.75507,3.076167 -1.07588,4.610121 -0.20915,1.384866 -0.40966,2.770276 -0.63995,4.153138 -0.0657,0.39437 -0.13065,0.78883 -0.20229,1.18257 -0.0429,0.23587 -0.44623,0.71618 -0.14131,0.70613 0.86229,-0.0284 1.59232,-0.52015 2.38849,-0.78023 -0.12035,-0.83668 -0.17516,-1.680145 -0.17875,-2.521812 -0.0345,-1.374496 -0.001,-2.769502 -0.35898,-4.121045 -0.15823,-0.429551 -0.29317,-0.938772 -0.77703,-1.233875 -1.17236,-0.715013 -2.82639,0.632405 -3.34936,1.520523 -0.10113,0.205403 -0.21811,0.40647 -0.30339,0.616211 -0.57267,1.40847 -0.84794,2.885776 -1.37541,4.304208 -0.34591,1.22109 -0.45281,0.77684 2.24956,-0.0244 0.0345,-0.0102 -0.008,-0.0576 -0.005,-0.0863 0.0153,-0.138628 0.0441,-0.276187 0.0603,-0.414746 0.0228,-0.19465 0.0369,-0.389857 0.0566,-0.584712 0.0239,-0.236803 0.0494,-0.473505 0.074,-0.710258 0.19599,-1.782382 0.43155,-3.569223 0.33269,-5.360668 -0.0116,-0.206436 -0.0136,-0.413328 -0.0347,-0.619308 -0.0154,-0.151381 0.11603,-0.482144 -0.0746,-0.451839 -2.59143,0.411979 -2.51982,0.58341 -2.83479,1.965137 -0.51912,2.002558 -1.16452,3.988066 -2.22243,5.865195 -0.22028,0.363119 -0.41077,0.738189 -0.66084,1.089349 -0.20098,0.28222 -1.0934,0.73883 -0.68875,0.80579 0.61954,0.10253 1.12932,-0.45057 1.71654,-0.6357 0.14366,-0.0453 -0.23261,0.16761 -0.37614,0.21313 -0.22389,0.071 -0.37224,-0.10019 -0.50354,-0.18974 -0.86768,-0.88797 -1.17317,-1.723687 -1.37012,-2.827886 -0.27519,-1.627845 -0.22646,-3.266031 -0.21392,-4.905145 0.002,-0.263702 0.004,-0.527405 0.006,-0.791109 0.003,-0.20994 0.007,-0.41987 0.009,-0.62982 6.9e-4,-0.122086 0.14968,-0.397554 -0.001,-0.366259 -2.60131,0.538488 -2.4118,0.300995 -2.48185,1.363724 -0.0908,1.201531 -0.13904,2.409637 -0.38782,3.599087 -0.45236,1.607906 -1.13332,3.087817 -2.82152,4.164908 0.52412,-0.20971 1.07175,-0.38695 1.57238,-0.62912 0.18654,-0.09023 -0.4043,0.14552 -0.62164,0.16922 -0.72918,0.0795 -1.56977,-0.355883 -2.13546,-0.651969 -0.15745,-0.117507 -0.33163,-0.222715 -0.47234,-0.352519 -0.77913,-0.718758 -1.00606,-1.64957 -1.03342,-2.5636 0.0806,-1.06531 0.24616,-2.236987 1.09085,-3.124419 0.16544,-0.173806 0.38074,-0.314974 0.57111,-0.472461 -0.5174,0.210296 -1.05287,0.395488 -1.55222,0.630888 -0.27042,0.127482 0.56252,-0.229572 0.8629,-0.305935 1.35581,-0.344672 2.73254,-0.118789 4.0148,0.291336 0.30344,0.108887 0.61602,0.203419 0.9103,0.326664 0.9963,0.417247 1.80557,1.070596 2.56368,1.711673 0.9297,0.768706 0.36546,0.46496 2.8594,-0.732552 0.0752,-0.03613 -0.0575,-0.130434 -0.0887,-0.19494 -0.0786,-0.162258 -0.2844,-0.565369 -0.36624,-0.702878 -0.0837,-0.14058 -0.18002,-0.27635 -0.27003,-0.414523 -0.22028,-0.271626 -0.38478,-0.522587 -0.70361,-0.734846 -0.51063,-0.339964 -1.25031,-0.461136 -1.89734,-0.483326 -0.20246,0.02803 -0.87215,0.108806 -1.05489,0.183397 -1.4481,0.591116 -2.78429,1.097555 -3.88892,1.999082 -0.77914,0.699459 -1.43623,1.483107 -1.98523,2.304396 -0.33272,0.503996 -0.66302,1.008756 -1.05447,1.487182 -0.16225,0.193752 -0.32556,0.391882 -0.53994,0.554296 -0.068,0.05156 -0.30259,0.176664 -0.21872,0.142082 2.83443,-1.168719 2.83511,-1.160827 1.91108,-0.86002 -0.55684,0.10594 -1.11672,0.222977 -1.6968,0.203787 -0.84736,0.0034 -1.69596,0.0063 -2.54151,-0.04368 -1.13535,-0.08495 -2.25373,-0.255913 -3.31957,-0.58339 -0.47014,-0.142903 -0.60103,-0.162478 -1.01616,-0.35994 -0.0897,-0.04269 -0.17964,-0.08807 -0.25312,-0.146721 -0.0169,-0.0135 0.0198,-0.0654 -0.001,-0.0566 -0.75505,0.310853 -1.49609,0.642253 -2.23413,0.977064 -0.0764,0.03464 0.16444,-0.0503 0.24666,-0.07545 0.41072,-0.123737 0.80003,-0.264753 1.18275,-0.436232 1.38859,-0.622167 2.7815,-1.209416 4.07937,-1.937072 1.49131,-0.78384 3.07372,-1.557729 4.10367,-2.736841 0.1178,-0.168141 0.25492,-0.328874 0.3534,-0.504425 0.39838,-0.710196 0.27213,-1.490793 -0.0296,-2.206351 -0.0676,-0.117166 -0.11725,-0.241765 -0.20294,-0.3515 -0.42575,-0.545219 -1.1548,-0.509981 -1.85662,-0.373494 -1.93202,0.393131 -3.68555,1.184571 -5.27547,2.121368 -0.2875,0.215008 -0.42059,0.288604 -0.63646,0.55728 -0.37047,0.461072 -0.47637,1.02611 -0.67601,1.536806 -0.46858,1.536619 -0.92627,3.08105 -1.04865,4.663434 -0.0646,0.6722 -0.1209,0.988417 -0.0934,1.641979 0.007,0.17317 -0.16071,0.53332 0.0603,0.51764 0.89047,-0.0632 1.70827,-0.42168 2.52753,-0.701292 0.17752,-0.06059 -0.25134,-0.459589 -0.0122,-0.453615 -0.10969,-1.031988 -0.26812,-2.06022 -0.37595,-3.092308 -0.11014,-1.533879 -0.15867,-3.070492 -0.33007,-4.601477 -0.201,-2.224014 -0.2085,-4.450209 -0.16684,-6.6790808 0.007,-0.502267 0.0169,-1.288056 0.0319,-1.81502 0.005,-0.171374 0.23753,-0.53925 0.0204,-0.514006 -2.75616,0.320334 -2.42957,0.201691 -2.41716,1.132391 -0.003,0.738187 3.6e-4,1.4763558 -0.002,2.2145428 -5.5e-4,0.801147 0.0131,1.60225 0.0114,2.403404 -0.001,0.931227 0.0138,1.862549 -0.009,2.793703 -0.0204,0.91258 -0.064,1.826672 -0.22744,2.731585 -0.23473,1.193927 -0.50876,2.390116 -1.00176,3.53789 -0.38155,0.853821 -0.7503,1.715327 -1.29701,2.515893 -0.16639,0.2049 -0.17288,0.23831 -0.40078,0.41243 -0.0925,0.0707 -0.40913,0.24404 -0.29344,0.19867 3.83617,-1.50469 1.97946,-0.881557 1.15187,-0.52133 -1.05681,0.28984 -1.6134,0.40755 -2.11595,-0.516055 -0.47335,-1.360524 -0.69148,-2.75772 -0.85711,-4.159493 -0.21157,-1.121808 0.0598,-0.661034 -2.56831,0.493248 -0.0698,0.03065 -0.0455,0.120084 -0.0608,0.181432 -0.17812,0.70979 0.012,0.127285 -0.22428,0.946949 -0.0577,0.200047 -0.12674,0.397996 -0.1901,0.596995 -0.33866,0.855461 -0.6881,1.76802 -1.31715,2.527314 -0.15689,0.18936 -0.82124,0.55853 -0.53426,0.53267 0.60566,-0.0546 1.09328,-0.42152 1.63992,-0.63229 -0.70331,0.33032 -1.39053,0.62185 -2.20304,0.75829 -0.1913,0.0321 -0.39084,0.08 -0.58324,0.0521 -0.36539,-0.0529 -0.44163,-0.40109 -0.54735,-0.59972 -0.11644,-0.26208 -0.3415,-0.755277 -0.4343,-1.019538 -0.27777,-0.791019 -0.36072,-1.607676 -0.37118,-2.425085 -0.0235,-1.193311 -0.0438,-2.428243 0.26657,-3.599941 -0.76264,0.285756 -1.52406,0.57353 -2.28794,0.857267 -0.0232,0.0086 0.0517,-0.04868 0.0653,-0.03172 0.0594,0.07395 0.0806,0.163226 0.10808,0.247811 0.11159,0.343696 0.11173,0.694659 0.0938,1.046579 -0.0354,1.051261 -0.12382,2.103815 -0.37685,3.138635 -0.16464,0.577098 -0.33306,1.141882 -0.64162,1.684992 -0.0734,0.12922 -0.15034,0.25831 -0.2484,0.37714 -0.0825,0.1 -0.43104,0.32096 -0.29024,0.27557 0.68256,-0.22008 1.30382,-0.54171 1.95572,-0.81256 -0.75609,0.29857 -1.77764,0.50213 -2.6273,0.45255 -0.81915,-0.18097 -1.26517,-0.494 -1.72426,-1.0553 -0.65127,-0.946189 -0.83166,-2.031145 -1.02284,-3.081726 -0.23763,-1.897043 -0.21306,-3.799148 -0.19749,-5.703603 0.004,-2.050558 -0.004,-4.102584 0.12386,-6.1512518 0.0237,-0.247043 0.0376,-0.494776 0.071,-0.741133 0.0233,-0.171246 0.31733,-0.534535 0.0988,-0.510818 -0.82711,0.08978 -1.55863,0.47161 -2.313013,0.751152 -0.03921,0.01452 0.07632,0.0403 0.09193,0.07189 0.110143,0.222804 0.162613,0.609423 0.203793,0.824442 0.21451,1.4178638 0.22247,2.8492058 0.26459,4.2750788 -0.0302,1.467497 -0.0859,2.935886 -0.28101,4.396673 -0.219871,1.677614 -0.425041,3.361107 -0.842028,5.017336 -0.265612,0.750757 -0.520298,1.47784 -1.140067,2.10837 -0.16885,0.17178 -0.84656,0.51219 -0.574529,0.46989 0.601307,-0.0935 1.083475,-0.45108 1.648506,-0.63689 0.226937,-0.0746 -0.419683,0.20121 -0.629523,0.30181 -0.528674,0.16258 -0.693995,0.27205 -1.258528,0.23957 -0.584644,-0.0336 -1.195712,-0.30136 -1.578002,-0.64302 -0.145642,-0.13017 -0.242441,-0.28924 -0.36366,-0.43385 -0.100707,-0.184911 -0.214947,-0.365678 -0.302117,-0.554731 -0.526942,-1.142834 -0.650398,-2.348181 -0.670215,-3.553906 -0.02876,-0.539122 -0.05913,-1.052339 -0.07573,-1.591989 -0.021,-0.682577 -0.0013,-1.372734 -0.0872,-2.053324 -0.01751,-0.138585 -0.05575,-0.275095 -0.08363,-0.412644 -0.841884,0.265786 -1.716433,0.475634 -2.525652,0.797358 -0.104527,0.04156 -0.08842,0.169768 -0.125453,0.256653 -0.06323,0.148338 -0.118014,0.29879 -0.175153,0.448623 -0.240307,0.630162 -0.478342,1.261551 -0.666909,1.902638 -0.50918,1.611879 -1.013351,3.253765 -2.000381,4.734622 -0.19601,0.23732 -0.369598,0.48688 -0.58803,0.71196 -0.200592,0.20669 -0.997307,0.57795 -0.665127,0.57929 0.561906,0.002 1.007047,-0.38955 1.515762,-0.57585 0.272563,-0.0998 -0.524471,0.23554 -0.807174,0.31636 -0.672761,0.19234 -0.858378,0.14594 -1.534783,0.13951 -0.195621,-0.0628 -0.423903,-0.0832 -0.586862,-0.1885 -0.323905,-0.20927 -0.52865,-0.7487 -0.631739,-1.02347 -0.334366,-0.891218 -0.535653,-1.814028 -0.680219,-2.734013 -0.131568,-1.073566 -0.362313,-2.251121 0.269573,-3.26487 0.234372,-0.37601 0.448053,-0.513912 0.806567,-0.822537 0.200972,-0.124747 0.84088,-0.449537 0.602918,-0.374243 -0.551371,0.174463 -1.08328,0.399119 -1.559924,0.677054 -0.22929,0.133701 0.525237,-0.184079 0.803591,-0.236028 0.827662,-0.154469 1.670806,-0.04887 2.46855,0.141277 0.231467,0.09787 0.481334,0.172939 0.694402,0.293618 1.195378,0.677043 1.985642,2.171326 2.753129,3.127128 0.824578,1.123851 0.328294,0.873649 2.953368,-0.394481 0.103969,-0.05023 0.01103,-0.190917 0.0063,-0.28629 -0.0173,-0.350183 -0.0732,-0.712547 -0.139007,-1.057865 -0.03946,-0.207062 -0.08927,-0.412841 -0.13391,-0.619261 -0.290635,-1.011835 -0.555304,-1.995032 -1.807083,-2.5323 -0.375737,-0.114164 -0.468862,-0.169052 -0.877566,-0.187317 -1.462052,-0.06533 -2.983894,0.980141 -4.032806,1.401103 -0.133937,0.07911 -0.276882,0.149692 -0.401811,0.237321 -0.780093,0.547171 -1.14947,1.351154 -1.587812,2.070082 -0.665472,1.258668 -1.27962,2.533878 -1.869595,3.815155 -0.36261,0.737987 -0.719867,1.478347 -1.389643,2.085987 -0.09513,0.0913 -0.183269,0.18723 -0.285401,0.27374 -0.09808,0.0831 -0.445038,0.28214 -0.314064,0.23406 0.691673,-0.25394 1.341791,-0.57179 2.012687,-0.85769 -0.08922,0.0312 -0.172821,0.0751 -0.267667,0.0937 -0.09625,0.0189 -0.198065,0.0238 -0.29692,0.017 -0.09767,-0.007 -0.189955,-0.038 -0.284931,-0.057 -0.67564,-0.20236 -1.269996,-0.51497 -1.846491,-0.85356 -0.687088,-0.40819 -1.401997,-0.788708 -2.056702,-1.228795 -0.132647,-0.07456 -0.214815,-0.128068 -0.362432,-0.182951 -0.181784,-0.06759 -0.402386,-0.06575 -0.529914,-0.202031 -0.0537,-0.112955 -0.06295,-0.103645 -0.06094,-0.236141 7.57e-4,-0.05343 0.07956,-0.181849 0.01725,-0.159732 -0.78962,0.280296 -1.503497,0.679068 -2.289087,0.966179 -0.04592,0.01678 -0.06319,-0.07769 -0.04282,-0.113928 0.01458,-0.02595 0.04693,0.04324 0.0704,0.06487 0.48984,0.603323 0.881688,0.602115 1.767841,0.581491 0.641067,-0.01641 2.16682,-0.03903 2.700609,-0.25346 0.944272,-0.379331 1.852042,-0.811644 2.778064,-1.217465 0.127359,-0.08471 0.265105,-0.160735 0.382077,-0.254128 0.784021,-0.625978 1.111869,-1.525298 1.274182,-2.365268 0.03062,-0.397865 0.08312,-0.754819 0.01212,-1.153667 -0.09059,-0.508861 -0.355652,-1.101839 -0.760559,-1.511683 -0.13699,-0.13866 -0.317951,-0.247073 -0.476924,-0.370608 -0.198932,-0.06323 -0.38796,-0.150465 -0.596792,-0.189673 -1.679879,-0.315391 -3.063009,0.568935 -4.49512,1.160005 -0.213832,0.08825 -0.404148,0.208708 -0.59138,0.328246 -0.193817,0.123742 -0.366169,0.26666 -0.549254,0.399991 -0.920666,0.779248 -1.723779,1.552167 -2.068084,2.600623 -0.212444,0.732957 -0.313751,1.477904 -0.464996,2.219137 -0.03319,0.105984 -0.05697,0.214036 -0.09955,0.317956 -0.03303,0.08062 -0.228726,0.262268 -0.12656,0.233916 2.884742,-0.800524 2.307362,-0.286391 2.227926,-1.520655 -0.0029,-1.022791 -0.01367,-2.045565 -0.0178,-3.068355 -0.01742,-1.462594 -0.03255,-2.925318 -0.01465,-4.387959 0.02553,-1.459302 0.06383,-2.926839 0.422805,-4.364249 0.415823,-1.4009798 1.002148,-2.8345238 2.296866,-3.9009478 -0.703671,0.256943 -1.422902,0.489378 -2.111018,0.770826 -0.03592,0.01469 0.09167,0.02008 0.103054,0.05046 0.03401,0.09072 0.01957,0.188542 0.02196,0.283046 0.01052,0.41583 -0.02997,0.832195 -0.03954,1.247708 -0.08936,1.3571898 -0.25743,2.7102288 -0.556893,4.0499408 -0.332201,1.642357 -0.516918,3.299762 -0.892206,4.93706 -0.517063,2.110731 -0.977041,4.260259 -1.996038,6.264991 -0.167419,0.2742 -0.308299,0.55927 -0.502256,0.82259 -0.14929,0.20268 -0.820265,0.60166 -0.523516,0.57003 0.704976,-0.0751 1.283555,-0.47962 1.925333,-0.71943 -0.104118,-0.007 -0.218893,0.0142 -0.312353,-0.0224 -0.10227,-0.04 -0.602814,-0.44139 -0.669552,-0.4935 -0.145095,-0.1179 -0.3959,-0.298071 -0.498188,-0.456669 -0.250389,-0.388226 -0.144148,-0.876112 -0.177857,-1.289044 -0.0045,-1.265326 -0.01347,-2.530645 -0.02219,-3.795955 -0.01174,-0.755317 -0.01134,-1.512197 -0.06741,-2.266592 -0.02276,-0.306227 -0.05975,-0.743303 -0.155436,-1.052768 -0.0379,-0.122558 -0.104759,-0.238527 -0.15714,-0.357791 -0.09066,-0.07994 -0.145946,-0.281305 -0.271984,-0.239833 -0.902445,0.296947 -1.725727,0.729296 -2.532525,1.162649 -0.137772,0.074 -0.181713,0.219734 -0.257668,0.336038 -0.419021,0.641608 -0.672328,1.340564 -0.963881,2.02012 -0.450264,1.152415 -0.881043,2.308597 -1.311777,3.465537 -0.152384,0.409307 -0.312537,0.816875 -0.459364,1.227419 -0.113031,0.316045 -0.734544,0.897149 -0.320137,0.952142 0.840217,0.111497 1.603997,-0.450226 2.405994,-0.675338 0.132956,-1.548463 0.246416,-3.098949 0.285768,-4.650701 -0.013,-0.577181 -0.03042,-1.530491 -0.05903,-2.114312 -0.02096,-0.427716 0.01234,-1.303008 -0.348421,-1.70139 -0.06049,-0.0668 -0.171743,-0.09378 -0.257614,-0.140676 -0.849331,0.383401 -1.732373,0.724527 -2.54799,1.150201 -0.132281,0.06904 -0.548968,0.777553 -0.585799,0.842138 -0.493711,0.86575 -0.88152,1.765805 -1.339563,2.642764 -0.513755,1.093342 -1.012759,2.190441 -1.500755,3.290975 -0.115701,0.260927 -0.693099,0.75492 -0.341389,0.784307 2.621693,0.219065 2.522835,-0.01788 2.328184,-0.682599 0.09271,-1.686444 0.02367,-3.375086 0.03785,-5.062524 -0.01888,-0.777035 0.01287,-1.587487 -0.141613,-2.358424 -0.03568,-0.178033 0.0607,-0.556507 -0.166525,-0.524734 -2.355365,0.329345 -2.24529,0.379573 -2.821841,1.323471 -1.139492,2.239592 -2.261654,4.484656 -3.437835,6.712755 -0.200752,0.351707 -0.38477,0.70953 -0.602257,1.055121 -0.179902,0.285873 -0.983293,0.756043 -0.5889,0.837643 0.637099,0.13183 1.203319,-0.42634 1.832179,-0.58039 0.111785,-0.0274 -0.138968,0.22193 -0.250037,0.19282 -0.368174,-0.0965 -0.127078,-0.788318 -0.418812,-0.848688 -0.522739,-1.828384 -0.82877,-3.698646 -0.751629,-5.575619 0.06227,-1.036171 0.149155,-2.073937 0.179617,-3.111065 0.0078,-0.266135 0.338881,-0.761201 0.0012,-0.798613 -2.220447,-0.246037 -2.249689,-0.02352 -2.641033,0.733785 -0.633126,1.309907 -1.35774,2.592798 -1.978271,3.906834 -1.054843,2.103127 -2.061572,4.280076 -4.092558,5.948136 0.460383,-0.14516 0.902782,-0.33164 1.38115,-0.4355 0.674663,-0.146473 -0.884629,0.4341 -1.399133,0.38924 -0.860828,-0.075 -1.184915,-0.971567 -1.488183,-1.442578 -0.120361,-0.333206 -0.269851,-0.660824 -0.361085,-0.999618 -0.50804,-1.886586 -0.374821,-3.887549 0.810026,-5.612499 0.3002,-0.437045 0.714778,-0.819983 1.072166,-1.229975 0.434785,-0.349138 0.845675,-0.71743 1.304356,-1.047411 0.471623,-0.339291 1.067779,-0.575532 1.482463,-0.957461 0.161797,-0.149018 -0.909122,0.324716 -0.691199,0.228697 1.047931,-0.461727 2.124577,-0.820829 3.333932,-0.891932 0,0 2.180813,-1.254234 2.180813,-1.254234 z" />
    <path
       style="fill:#000000;stroke-width:0.264583"
       id="path886"
       d="m 89.686444,13.431296 c 4.842758,1.007491 9.694249,1.958949 14.575816,2.759059 1.82271,0.33269 3.65702,0.53122 5.5071,0.590328 0,0 3.14791,-2.277235 3.14791,-2.277235 v 0 c -1.87191,-0.01714 -3.7301,-0.167491 -5.5792,-0.475837 -4.85251,-0.720166 -9.709189,-1.542179 -14.431742,-2.89139 0,0 -3.219884,2.295075 -3.219884,2.295075 z" />
    <text
       xml:space="preserve"
       style="font-style:normal;font-weight:normal;font-size:8.46667px;line-height:1.25;font-family:sans-serif;white-space:pre;inline-size:205.329;fill:#000000;fill-opacity:1;stroke:none;stroke-width:0.264583"
       x="24.168186"
       y="177.23337"
       id="text1101"
       transform="matrix(0.87900934,0,0,1.1698583,-5.2317346,-25.365828)"><tspan
         x="24.168186"
         y="177.23337"
         id="tspan1253">Lorem ipsum dolor sit amet, consectetur adipiscing </tspan><tspan
         x="24.168186"
         y="187.81671"
         id="tspan1255">elit, sed do eiusmod tempor incididunt ut labore et </tspan><tspan
         x="24.168186"
         y="198.40005"
         id="tspan1257">dolore magna aliqua. Ut enim ad minim veniam, </tspan><tspan
         x="24.168186"
         y="208.9834"
         id="tspan1259">quis nostrud exercitation ullamco laboris nisi ut </tspan><tspan
         x="24.168186"
         y="219.56674"
         id="tspan1261">aliquip ex ea commodo consequat. Duis aute irure </tspan><tspan
         x="24.168186"
         y="230.15009"
         id="tspan1263">dolor in reprehenderit in voluptate velit esse cillum </tspan><tspan
         x="24.168186"
         y="240.73343"
         id="tspan1265">dolore eu fugiat nulla pariatur. Excepteur sint </tspan><tspan
         x="24.168186"
         y="251.31677"
         id="tspan1267">occaecat cupidatat non proident, sunt in culpa qui </tspan><tspan
         x="24.168186"
         y="261.90012"
         id="tspan1269">officia deserunt mollit anim id est laborum.</tspan></text>
    <text
       xml:space="preserve"
       style="font-style:normal;font-weight:normal;font-size:21.3949px;line-height:1.25;font-family:sans-serif;fill:#000000;fill-opacity:1;stroke:none;stroke-width:0.401154"
       x="75.805031"
       y="161.73798"
       id="text1161"
       transform="scale(0.95967292,1.0420217)"><tspan
         sodipodi:role="line"
         id="tspan1159"
         style="font-size:21.3949px;stroke-width:0.401154"
         x="75.805031"
         y="161.73798">Home</tspan></text>
  </g>
</svg>
